<?xml version="1.0" encoding="utf-8"?>
<!-- Generator: Adobe Illustrator 16.0.0, SVG Export Plug-In . SVG Version: 6.00 Build 0)  -->
<!DOCTYPE svg PUBLIC "-//W3C//DTD SVG 1.1//EN" "http://www.w3.org/Graphics/SVG/1.1/DTD/svg11.dtd">
<svg version="1.1" id="Layer_1" xmlns="http://www.w3.org/2000/svg" xmlns:xlink="http://www.w3.org/1999/xlink" x="0px" y="0px"
	 width="1500px" height="1500px" viewBox="0 0 1500 1500" enable-background="new 0 0 1500 1500" xml:space="preserve">
<g>
	<polygon points="170.362,827.756 105.362,827.756 182.231,765.256 247.231,765.256 	"/>
	<polygon points="182.231,890.256 247.231,890.256 170.362,827.756 105.362,827.756 	"/>
	<g>
		<g>
			<path d="M166.112,825.473c-3.481,1.736-8.623,0.33-12.303-0.078c-4.659-0.516-9.36-0.45-14.032-0.856
				c-10.264-0.893-19.854-1.466-29.942,0.682c-3.153,0.672-1.815,5.491,1.329,4.822c10.881-2.316,21.388-1.013,32.407-0.198
				c4.877,0.359,9.718,0.54,14.592,1.029c3.681,0.369,7.094,0.603,10.473-1.084C171.521,828.35,168.988,824.037,166.112,825.473
				L166.112,825.473z"/>
		</g>
	</g>
</g>
<g>
	<polygon points="1281.595,824.162 1346.595,824.162 1269.726,761.662 1204.726,761.662 	"/>
	<polygon points="1269.726,886.662 1204.726,886.662 1281.595,824.162 1346.595,824.162 	"/>
	<g>
		<g>
			<path d="M1283.321,826.195c6.627,3.307,16.055,0.376,23.165,0.158c11.734-0.357,22.683-2.38,34.307,0.095
				c3.146,0.669,4.482-4.15,1.33-4.822c-9.42-2.005-18.442-1.78-28.047-0.86c-4.783,0.458-9.568,0.509-14.353,0.881
				c-4.121,0.32-9.977,2.179-13.879,0.232C1282.969,820.443,1280.436,824.756,1283.321,826.195L1283.321,826.195z"/>
		</g>
	</g>
</g>
<polygon fill="#A52C3E" points="294.866,1020.255 265.7,1020.255 340.538,635.257 369.702,635.257 "/>
<rect x="442.006" y="632.912" width="64.166" height="382.5"/>
<rect x="548.382" y="620.901" transform="matrix(0.848 -0.5299 0.5299 0.848 -348.057 434.6593)" width="70.932" height="406.609"/>
<polygon points="663.781,668.26 721.428,632.236 938.779,980.068 881.125,1016.088 "/>
<rect x="881.279" y="633.516" width="62.5" height="382.498"/>
<g>
	<path d="M1047.853,784.717"/>
	<path d="M1055.347,786.416c-10.109,0.066-11.047-0.547-7.494-1.699c-4.078-0.078-8.561-0.16-13.5-0.246
		c-108.098-1.84-89.193-97.172-89.193-97.172s62.99-0.578,92.018,0c30.484,5.037,23.273,34.797,39.117,53.313
		c33.449,26.932,31.574-103.883-39.117-105.637c-56.184-3.959-140.193,0-140.193,0v380.986h152.236
		c64.555,0,97.797-57.773,97.797-115.006C1145.577,821.314,1075.368,793.502,1055.347,786.416z M1049.22,962.549H945.159V841.002
		h104.061c32.758,0,49.137,30.523,49.137,60.5S1081.978,962.549,1049.22,962.549z"/>
	<path d="M1047.853,784.717c-3.553,1.152-7.432,1.781-11.641,1.781c0,0,9.025-0.016,19.135-0.082
		C1054.567,785.883,1049.659,784.75,1047.853,784.717z"/>
</g>
</svg>
